<svg width="45" height="171" viewBox="0 0 45 171" fill="none" xmlns="http://www.w3.org/2000/svg">
<path d="M29.527 26.4201C35.0119 26.4201 39.4583 21.9737 39.4583 16.4888C39.4583 11.0039 35.0119 6.55753 29.527 6.55753C24.0421 6.55753 19.5957 11.0039 19.5957 16.4888C19.5957 21.9737 24.0421 26.4201 29.527 26.4201Z" fill="#9F616A"/>
<path d="M23.7863 17.7175C24.5735 17.6704 25.3423 17.9359 26.1242 18.0405C28.9214 18.4118 31.8309 16.3821 32.4487 13.6289C32.4982 13.2623 32.6075 12.9062 32.7722 12.575C33.2028 11.872 34.1831 11.7382 34.9912 11.8998C35.7993 12.0614 36.5656 12.4395 37.3887 12.4829C38.6595 12.5497 39.8795 11.7672 40.5569 10.6898C41.1969 9.57831 41.469 8.29291 41.3344 7.01743L40.7251 7.65674C40.4775 7.13302 40.382 6.55034 40.4492 5.975C40.1264 5.889 39.7868 5.88734 39.4632 5.97016C39.1395 6.05298 38.8425 6.21752 38.6006 6.44801C38.0633 6.50511 38.4689 5.45176 38.0702 5.08764C37.876 4.96842 37.6446 4.92519 37.4206 4.96627C36.2777 4.97719 35.3532 4.10324 34.4527 3.39966C32.8924 2.18321 31.0678 1.35091 29.1264 0.970036C27.8359 0.718243 26.4637 0.677996 25.24 1.15724C24.252 1.60072 23.3604 2.23318 22.6153 3.01901C20.6993 4.85987 19.0026 7.02616 18.2057 9.56187C17.5576 11.6389 17.5393 13.8613 18.153 15.9487C18.474 17.0327 19.4422 20.7453 20.8593 20.8317C22.6387 20.9412 21.5701 17.8498 23.7863 17.7175Z" fill="#2F2E41"/>
<path d="M10.0338 96.0035C10.5845 95.6259 11.0458 95.1321 11.3851 94.5569C11.7243 93.9818 11.9334 93.3392 11.9974 92.6745C12.0615 92.0098 11.9791 91.3391 11.7559 90.7097C11.5328 90.0803 11.1743 89.5075 10.7058 89.0316L12.4777 49.479L3.45658 50.4914L3.98076 89.1808C3.23325 90.0208 2.81987 91.1058 2.81897 92.2303C2.81807 93.3547 3.22971 94.4405 3.97588 95.2817C4.72205 96.1229 5.75089 96.6611 6.86742 96.7944C7.98394 96.9277 9.11057 96.6467 10.0338 96.0048V96.0035Z" fill="#A0616A"/>
<path d="M26.4908 162.957L31.6253 163.86L36.6998 144.484L29.9726 143.152L26.4908 162.957Z" fill="#A0616A"/>
<path d="M40.6532 170.376L24.515 167.525L25.6165 161.29L35.5196 163.039C37.1732 163.332 38.6431 164.269 39.6059 165.644C40.5686 167.02 40.9454 168.722 40.6532 170.376Z" fill="#2F2E41"/>
<path d="M12.3983 165.528H17.611L20.0909 145.42H12.3973L12.3983 165.528Z" fill="#A0616A"/>
<path d="M27.6602 170.368H11.2762V164.038H21.3302C23.009 164.038 24.6191 164.705 25.8062 165.892C26.9933 167.079 27.6602 168.689 27.6602 170.368Z" fill="#2F2E41"/>
<path d="M34.1484 158.32C34.0671 158.321 33.9858 158.316 33.9051 158.306L27.7691 157.801C27.2225 157.737 26.7238 157.458 26.3827 157.026C26.0416 156.594 25.886 156.045 25.9502 155.498C25.9543 155.464 25.9592 155.429 25.965 155.395L32.058 125.34L28.2296 105.153C28.1986 104.989 28.1092 104.841 27.9779 104.738C27.8467 104.635 27.6824 104.582 27.5156 104.59C27.3487 104.599 27.1904 104.667 27.0701 104.783C26.9497 104.899 26.8754 105.055 26.8608 105.221L21.2231 156.514C21.1705 157.055 20.9101 157.553 20.4968 157.905C20.0835 158.257 19.5496 158.435 19.0078 158.401L13.2272 158.186C12.7206 158.15 12.2447 157.93 11.8894 157.567C11.534 157.204 11.3238 156.724 11.2983 156.217L11.7601 94.2338L41.7303 90.4878L43.8239 122.821L43.8155 122.856L36.165 156.735C36.0549 157.187 35.7963 157.589 35.4307 157.876C35.0651 158.164 34.6136 158.32 34.1484 158.32Z" fill="#2F2E41"/>
<path d="M31.4814 98.9508C29.8475 98.9607 28.2451 98.5024 26.8636 97.63C21.8047 94.4681 16.0587 95.7249 13.0836 96.7564C12.7884 96.8598 12.4737 96.8951 12.1629 96.8597C11.8521 96.8244 11.5534 96.7191 11.289 96.552C11.0276 96.3879 10.8068 96.1669 10.643 95.9053C10.4793 95.6438 10.3768 95.3486 10.3432 95.0419L4.93454 46.7252C4.02784 38.63 8.90426 31.0192 16.5292 28.6285C16.8156 28.5387 17.1068 28.4535 17.4028 28.373C19.7756 27.7297 22.2606 27.6143 24.6828 28.0347C27.1051 28.4552 29.4058 29.4014 31.423 30.8067C33.4779 32.2272 35.1966 34.0808 36.458 36.237C37.7194 38.3933 38.4929 40.7997 38.7241 43.2871L43.2794 91.9265C43.3102 92.2415 43.2674 92.5594 43.1544 92.8551C43.0414 93.1508 42.8613 93.4162 42.6283 93.6304C41.0317 95.1074 36.398 98.9502 31.4814 98.9508Z" fill="#7DFCFC"/>
<path d="M15.0081 57.0858L2.8029 55.7442C2.45564 55.7059 2.12069 55.5934 1.82087 55.414C1.52105 55.2347 1.26341 54.9929 1.06547 54.705C0.867531 54.4172 0.733954 54.09 0.673839 53.7459C0.613723 53.4018 0.62848 53.0487 0.717106 52.7108L3.8238 40.87C3.91756 39.9878 4.18426 39.1327 4.60866 38.3537C5.03306 37.5746 5.60683 36.8868 6.29717 36.3296C6.98752 35.7724 7.78091 35.3567 8.63199 35.1063C9.48307 34.8559 10.3752 34.7756 11.2573 34.8701C12.1394 34.9646 12.9942 35.2321 13.7729 35.6572C14.5516 36.0822 15.2389 36.6566 15.7955 37.3474C16.3521 38.0382 16.7672 38.832 17.0168 39.6833C17.2665 40.5345 17.346 41.4267 17.2508 42.3087C17.248 42.3342 17.2452 42.3597 17.2421 42.3851L17.7033 54.5782C17.7164 54.9273 17.654 55.2751 17.5206 55.5979C17.3871 55.9208 17.1856 56.2111 16.9299 56.4491C16.6741 56.687 16.3701 56.8671 16.0384 56.977C15.7068 57.0869 15.3554 57.124 15.0081 57.0858Z" fill="#7DFCFC"/>
<path d="M43.2286 94.3099C43.7299 93.8687 44.1284 93.3229 44.396 92.711C44.6635 92.0992 44.7937 91.436 44.7772 90.7684C44.7608 90.1008 44.5981 89.4449 44.3008 88.8469C44.0034 88.2489 43.5785 87.7235 43.056 87.3075L40.0486 47.8297L31.209 49.8197L36.398 88.265C35.7575 89.189 35.4781 90.3158 35.6127 91.432C35.7474 92.5482 36.2868 93.5762 37.1288 94.3212C37.9707 95.0663 39.0567 95.4767 40.181 95.4746C41.3053 95.4725 42.3897 95.0581 43.2289 94.3099L43.2286 94.3099Z" fill="#A0616A"/>
<path d="M27.8196 54.6041C27.5636 54.3661 27.362 54.0756 27.2286 53.7525C27.0951 53.4294 27.033 53.0813 27.0465 52.732L27.5076 40.5389C27.3176 38.7651 27.8374 36.9881 28.9534 35.5962C30.0694 34.2044 31.6908 33.3107 33.4636 33.1106C35.2363 32.9104 37.0162 33.42 38.4145 34.5279C39.8127 35.6359 40.7156 37.2522 40.926 39.0238L44.0327 50.8646C44.1213 51.2025 44.136 51.5556 44.0759 51.8997C44.0158 52.2439 43.8822 52.571 43.6843 52.8589C43.4863 53.1467 43.2287 53.3886 42.9289 53.5679C42.6291 53.7472 42.2941 53.8598 41.9469 53.898L29.7416 55.2396C29.3943 55.278 29.0428 55.241 28.7111 55.1311C28.3794 55.0212 28.0753 54.841 27.8196 54.6028V54.6041Z" fill="#7DFCFC"/>
</svg>
