<svg width="168" height="241" viewBox="0 0 168 241" fill="none" xmlns="http://www.w3.org/2000/svg">
<path d="M157.298 81.8779L156.115 81.4804L166.973 49.0712C168.64 44.0966 168.262 38.6637 165.923 33.9676C163.584 29.2716 159.475 25.6971 154.5 24.0305L85.8345 1.03001C80.8599 -0.63658 75.427 -0.258747 70.7309 2.08039C66.0349 4.41952 62.4604 8.52835 60.7938 13.503L1.23313 191.303C0.407914 193.766 0.0759363 196.368 0.25616 198.96C0.436384 201.551 1.12527 204.082 2.2835 206.407C3.44172 208.732 5.0466 210.806 7.00649 212.511C8.96638 214.216 11.2429 215.519 13.7061 216.344L82.3703 239.346C87.3449 241.012 92.7777 240.634 97.4737 238.295C102.17 235.956 105.744 231.847 107.41 226.872L148.386 104.551L149.57 104.948L157.298 81.8779Z" fill="#3F3D56"/>
</svg>
